<svg width="208" height="208" viewBox="0 0 208 208" fill="none" xmlns="http://www.w3.org/2000/svg">
<path d="M34.5704 127.057L21.3972 113.884C16.0239 108.51 16.0239 99.6702 21.3972 94.2969L34.5704 81.1234C36.8238 78.87 38.6438 74.45 38.6438 71.33V52.6964C38.6438 45.0698 44.8838 38.83 52.5105 38.83H71.1438C74.2638 38.83 78.6838 37.0102 80.9371 34.7569L94.1104 21.5834C99.4837 16.2101 108.324 16.2101 113.697 21.5834L126.871 34.7569C129.124 37.0102 133.544 38.83 136.664 38.83H155.297C162.924 38.83 169.164 45.0698 169.164 52.6964V71.33C169.164 74.45 170.984 78.87 173.237 81.1234L186.411 94.2969C191.784 99.6702 191.784 108.51 186.411 113.884L173.237 127.057C170.984 129.31 169.164 133.73 169.164 136.85V155.483C169.164 163.11 162.924 169.35 155.297 169.35H136.664C133.544 169.35 129.124 171.17 126.871 173.424L113.697 186.597C108.324 191.97 99.4837 191.97 94.1104 186.597L80.9371 173.424C78.6838 171.17 74.2638 169.35 71.1438 169.35H52.5105C44.8838 169.35 38.6438 163.11 38.6438 155.483V136.85C38.6438 133.644 36.8238 129.224 34.5704 127.057Z" stroke="#0097E4" stroke-width="3" stroke-linecap="round" stroke-linejoin="round"/>
<path d="M78 130L130 78" stroke="#0097E4" stroke-width="3" stroke-linecap="round" stroke-linejoin="round"/>
<path d="M125.619 125.667H125.697" stroke="#0097E4" stroke-width="2" stroke-linecap="round" stroke-linejoin="round"/>
<path d="M82.2857 82.3333H82.3636" stroke="#0097E4" stroke-width="2" stroke-linecap="round" stroke-linejoin="round"/>
</svg>
