<svg width="92" height="92" viewBox="0 0 92 92" fill="none" xmlns="http://www.w3.org/2000/svg">
<path d="M54.165 43.4701C55.66 37.1834 50.1783 31.7015 43.8917 33.1965C40.94 33.9249 38.525 36.34 37.7967 39.2916C36.3017 45.5783 41.7833 51.0599 48.07 49.5649C51.06 48.8366 53.475 46.4217 54.165 43.4701Z" stroke="white" stroke-width="4" stroke-linecap="round" stroke-linejoin="round"/>
<path d="M69.0383 65.895C75.5933 59.7617 79.695 51.0599 79.695 41.3616C79.695 22.7316 64.5917 7.66666 46 7.66666C27.4084 7.66666 12.3051 22.7699 12.3051 41.3616C12.3051 51.0982 16.445 59.8765 23.0767 66.0099" stroke="white" stroke-width="4" stroke-linecap="round" stroke-linejoin="round"/>
<path d="M30.6666 55.775C27.14 52.0183 24.955 46.9583 24.955 41.3616C24.955 29.7466 34.385 20.3166 46 20.3166C57.615 20.3166 67.045 29.7466 67.045 41.3616C67.045 46.9583 64.86 51.98 61.3333 55.775" stroke="white" stroke-width="4" stroke-linecap="round" stroke-linejoin="round"/>
<path d="M39.4834 63.8632L33.9634 70.725C29.5934 76.2067 33.465 84.2949 40.48 84.2949H51.4817C58.4967 84.2949 62.4067 76.1684 57.9984 70.725L52.4784 63.8632C49.1817 59.6849 42.8184 59.6849 39.4834 63.8632Z" stroke="white" stroke-width="4" stroke-linecap="round" stroke-linejoin="round"/>
</svg>
