<svg width="24" height="24" viewBox="0 0 24 24" fill="none" xmlns="http://www.w3.org/2000/svg">
<path d="M21.71 10.76C21.8037 10.667 21.8781 10.5564 21.9289 10.4346C21.9797 10.3127 22.0058 10.182 22.0058 10.05C22.0058 9.91799 21.9797 9.78728 21.9289 9.66542C21.8781 9.54356 21.8037 9.43296 21.71 9.34C21.5226 9.15375 21.2692 9.04921 21.005 9.04921C20.7408 9.04921 20.4874 9.15375 20.3 9.34L21.71 10.76ZM21.71 10.76L14.21 18.26C14.0226 18.4463 13.7692 18.5508 13.505 18.5508C13.2408 18.5508 12.9874 18.4463 12.8 18.26L9.35355 14.8136M21.71 10.76L9.35355 14.8136M9.35355 14.8136L9 14.46L8.64645 14.8136L4 19.46V19.5V20H4.5H21C21.2652 20 21.5196 20.1054 21.7071 20.2929C21.8946 20.4804 22 20.7348 22 21C22 21.2652 21.8946 21.5196 21.7071 21.7071C21.5196 21.8946 21.2652 22 21 22H3C2.73478 22 2.48043 21.8946 2.29289 21.7071C2.10536 21.5196 2 21.2652 2 21V3C2 2.73478 2.10536 2.48043 2.29289 2.29289C2.48043 2.10536 2.73478 2 3 2C3.26522 2 3.51957 2.10536 3.70711 2.29289C3.89464 2.48043 4 2.73478 4 3L9.35355 14.8136ZM3.5 20V20.5H4H21C21.1326 20.5 21.2598 20.5527 21.3536 20.6464C21.4473 20.7402 21.5 20.8674 21.5 21C21.5 21.1326 21.4473 21.2598 21.3536 21.3536C21.2598 21.4473 21.1326 21.5 21 21.5H3C2.86739 21.5 2.74021 21.4473 2.64645 21.3536C2.55268 21.2598 2.5 21.1326 2.5 21V3C2.5 2.86739 2.55268 2.74021 2.64645 2.64645C2.74021 2.55268 2.86739 2.5 3 2.5C3.13261 2.5 3.25979 2.55268 3.35355 2.64645C3.44732 2.74021 3.5 2.86739 3.5 3V8.63V9.83711L4.35355 8.98355L8.6325 4.7046C8.63263 4.70447 8.63277 4.70434 8.6329 4.7042C8.72655 4.61133 8.8531 4.55921 8.985 4.55921C9.11678 4.55921 9.24321 4.61123 9.33682 4.70393C9.33705 4.70416 9.33727 4.70438 9.3375 4.7046L12.1258 7.50292L12.4794 7.85774L12.8336 7.50355L17.6325 2.7046C17.6327 2.70445 17.6328 2.7043 17.633 2.70414C17.7266 2.61131 17.8531 2.55921 17.985 2.55921C18.1171 2.55921 18.2438 2.61148 18.3375 2.7046L18.3377 2.70477L21.2477 5.59477L21.2477 5.5948C21.3419 5.68834 21.3951 5.81547 21.3956 5.94823C21.396 6.08099 21.3437 6.20849 21.2502 6.3027C21.1567 6.3969 21.0295 6.45009 20.8968 6.45056C20.7642 6.45103 20.637 6.39893 20.5428 6.3057C20.5426 6.30554 20.5425 6.30537 20.5423 6.3052L18.3536 4.11645L18 3.76289L17.6464 4.11645L12.8575 8.9054C12.8573 8.90555 12.8572 8.9057 12.857 8.90586C12.7634 8.99869 12.6369 9.05079 12.505 9.05079C12.3731 9.05079 12.2466 8.99869 12.153 8.90586C12.1528 8.9057 12.1527 8.90555 12.1525 8.9054L9.35355 6.10645L9 5.75289L8.64645 6.10645L3.64645 11.1064L3.5 11.2529V11.46V16.63V17.8351L4.35314 16.984L8.6525 12.6946C8.6526 12.6945 8.6527 12.6944 8.65281 12.6943C8.74646 12.6014 8.87305 12.5492 9.005 12.5492C9.13678 12.5492 9.26323 12.6012 9.35684 12.6939C9.35706 12.6942 9.35728 12.6944 9.3575 12.6946L13.146 16.4931L13.4995 16.8476L13.8536 16.4936L20.6525 9.6946C20.6526 9.69449 20.6527 9.69437 20.6528 9.69426C20.7465 9.60135 20.8731 9.54921 21.005 9.54921C21.1371 9.54921 21.2638 9.60148 21.3575 9.6946L21.3579 9.695C21.4048 9.74149 21.442 9.79679 21.4673 9.85771C21.4927 9.91864 21.5058 9.98399 21.5058 10.05C21.5058 10.116 21.4927 10.1814 21.4673 10.2423C21.442 10.3032 21.4048 10.3585 21.3579 10.405L21.3564 10.4064L13.8575 17.9054C13.8573 17.9056 13.8572 17.9057 13.857 17.9059C13.7634 17.9987 13.6368 18.0508 13.505 18.0508C13.3732 18.0508 13.2466 17.9987 13.153 17.9059C13.1528 17.9057 13.1527 17.9056 13.1525 17.9054L9.35355 14.1064L9 13.7529L8.64645 14.1064L3.64645 19.1064L3.5 19.2529V19.46V20Z" fill="black" stroke="white"/>
</svg>
