<svg width="92" height="92" viewBox="0 0 92 92" fill="none" xmlns="http://www.w3.org/2000/svg">
<path d="M76.6667 36.8C76.6667 21.4667 70.5334 15.3333 55.2 15.3333H36.8C21.4667 15.3333 15.3334 21.4667 15.3334 36.8V55.2C15.3334 70.5333 21.4667 76.6667 36.8 76.6667" stroke="white" stroke-width="4" stroke-linecap="round" stroke-linejoin="round"/>
<path d="M62.675 30.6667C60.5667 27.9833 57.04 26.8333 51.75 26.8333H40.25C30.6667 26.8333 26.8334 30.6667 26.8334 40.25V51.75C26.8334 57.04 27.9834 60.5667 30.6284 62.675" stroke="white" stroke-width="4" stroke-linecap="round" stroke-linejoin="round"/>
<path d="M30.705 15.3333V7.66666" stroke="white" stroke-width="4" stroke-linecap="round" stroke-linejoin="round"/>
<path d="M46 15.3333V7.66666" stroke="white" stroke-width="4" stroke-linecap="round" stroke-linejoin="round"/>
<path d="M61.3333 15.3333V7.66666" stroke="white" stroke-width="4" stroke-linecap="round" stroke-linejoin="round"/>
<path d="M76.6667 30.6667H84.3334" stroke="white" stroke-width="4" stroke-linecap="round" stroke-linejoin="round"/>
<path d="M30.705 76.6667V84.3333" stroke="white" stroke-width="1.5" stroke-linecap="round" stroke-linejoin="round"/>
<path d="M7.66663 30.6667H15.3333" stroke="white" stroke-width="1.5" stroke-linecap="round" stroke-linejoin="round"/>
<path d="M7.66663 46H15.3333" stroke="white" stroke-width="1.5" stroke-linecap="round" stroke-linejoin="round"/>
<path d="M7.66663 61.3333H15.3333" stroke="white" stroke-width="1.5" stroke-linecap="round" stroke-linejoin="round"/>
<path d="M64.055 71.2617C67.4211 71.2617 70.15 68.5328 70.15 65.1667C70.15 61.8005 67.4211 59.0717 64.055 59.0717C60.6888 59.0717 57.96 61.8005 57.96 65.1667C57.96 68.5328 60.6888 71.2617 64.055 71.2617Z" stroke="white" stroke-width="1.5" stroke-miterlimit="10" stroke-linecap="round" stroke-linejoin="round"/>
<path d="M43.7383 66.93V63.365C43.7383 61.2567 45.4633 59.5317 47.5716 59.5317C51.2516 59.5317 52.7466 56.925 50.9066 53.7433C49.8333 51.9033 50.4849 49.5267 52.3249 48.4917L55.8133 46.46C57.4233 45.5017 59.4933 46.0767 60.4516 47.6867L60.6816 48.07C62.5216 51.2517 65.5116 51.2517 67.3516 48.07L67.5816 47.6867C68.5399 46.0767 70.6099 45.54 72.2199 46.46L75.7083 48.4917C77.5483 49.565 78.1999 51.9033 77.1266 53.7433C75.2866 56.925 76.7816 59.5317 80.4616 59.5317C82.5699 59.5317 84.2949 61.2567 84.2949 63.365V66.93C84.2949 69.0383 82.5699 70.7633 80.4616 70.7633C76.7816 70.7633 75.2866 73.37 77.1266 76.5517C78.1999 78.3917 77.5483 80.7683 75.7083 81.8033L72.2199 83.835C70.6099 84.7933 68.5399 84.2183 67.5816 82.6083L67.3516 82.225C65.5116 79.0433 62.5216 79.0433 60.6816 82.225L60.4516 82.6083C59.4933 84.2183 57.4233 84.755 55.8133 83.835L52.3249 81.8033C50.4849 80.73 49.8333 78.3917 50.9066 76.5517C52.7466 73.37 51.2516 70.7633 47.5716 70.7633C45.4633 70.8017 43.7383 69.0767 43.7383 66.93Z" stroke="white" stroke-width="1.5" stroke-miterlimit="10" stroke-linecap="round" stroke-linejoin="round"/>
</svg>
