<svg width="92" height="92" viewBox="0 0 92 92" fill="none" xmlns="http://www.w3.org/2000/svg">
<path d="M11.5 34.9217V57.04C11.5 65.1667 11.5 65.1667 19.1667 70.3417L40.25 82.5317C43.4317 84.3717 48.6067 84.3717 51.75 82.5317L72.8333 70.3417C80.5 65.1667 80.5 65.1667 80.5 57.0784V34.9217C80.5 26.8334 80.5 26.8334 72.8333 21.6584L51.75 9.46838C48.6067 7.62838 43.4317 7.62838 40.25 9.46838L19.1667 21.6584C11.5 26.8334 11.5 26.8334 11.5 34.9217Z" stroke="white" stroke-width="4" stroke-linecap="round" stroke-linejoin="round"/>
<path d="M46 57.5C52.3513 57.5 57.5 52.3513 57.5 46C57.5 39.6487 52.3513 34.5 46 34.5C39.6487 34.5 34.5 39.6487 34.5 46C34.5 52.3513 39.6487 57.5 46 57.5Z" stroke="white" stroke-width="4" stroke-linecap="round" stroke-linejoin="round"/>
</svg>
