<svg width="24" height="24" viewBox="0 0 24 24" fill="none" xmlns="http://www.w3.org/2000/svg">
<path d="M14.7109 15.9341L15.0637 16.0967L15.3085 15.795C15.6341 15.3935 16.0447 15.0691 16.5107 14.8452C16.9762 14.6215 17.4854 14.5036 18.0019 14.5C18.6935 14.5003 19.3695 14.7056 19.9446 15.0898C20.5202 15.4744 20.9688 16.0211 21.2337 16.6606C21.4986 17.3001 21.5679 18.0039 21.4329 18.6828C21.2979 19.3617 20.9645 19.9854 20.475 20.4749C19.9855 20.9643 19.3619 21.2977 18.683 21.4327C18.004 21.5678 17.3003 21.4985 16.6608 21.2336C16.0212 20.9687 15.4746 20.5201 15.09 19.9445C14.706 19.3698 14.5008 18.6943 14.5002 18.0031C14.503 17.7945 14.5236 17.5865 14.5617 17.3814L14.6329 16.9986L14.2792 16.8358L8.99919 14.4058L8.68661 14.2619L8.44059 14.5025C7.94803 14.9841 7.3243 15.3097 6.64754 15.4384C5.97078 15.5671 5.27109 15.4932 4.63613 15.226C4.00117 14.9588 3.45918 14.5102 3.07806 13.9363C2.69695 13.3625 2.49365 12.6889 2.49365 12C2.49365 11.3111 2.69695 10.6375 3.07806 10.0637C3.45918 9.48981 4.00117 9.04118 4.63613 8.77398C5.27109 8.50679 5.97078 8.43291 6.64754 8.56162C7.3243 8.69032 7.94803 9.01587 8.44059 9.49749L8.68661 9.73805L8.99919 9.5942L14.2792 7.1642L14.6329 7.00139L14.5617 6.61855C14.5234 6.4128 14.5028 6.20415 14.5001 5.99488C14.4937 5.17029 14.7787 4.3699 15.3047 3.73486C15.831 3.09954 16.5648 2.67056 17.3766 2.52362C18.1884 2.37668 19.0261 2.52123 19.7417 2.93176C20.4573 3.34229 21.0048 3.9924 21.2878 4.76737C21.5707 5.54234 21.5708 6.39233 21.288 7.16735C21.0052 7.94237 20.4577 8.59258 19.7422 9.00324C19.0267 9.4139 18.1891 9.5586 17.3773 9.41181C16.5654 9.26502 15.8316 8.83617 15.3051 8.20095L15.0599 7.90506L14.7109 8.06588L9.6109 10.4159L9.20669 10.6021L9.34485 11.0252C9.5517 11.6586 9.5517 12.3414 9.34485 12.9748L9.20669 13.3978L9.6109 13.5841L14.7109 15.9341ZM19.3891 3.92132C18.978 3.64662 18.4946 3.49999 18.0002 3.49999C17.3371 3.49999 16.7012 3.76338 16.2324 4.23223C15.7635 4.70107 15.5002 5.33695 15.5002 5.99999C15.5002 6.49445 15.6468 6.9778 15.9215 7.38892C16.1962 7.80004 16.5866 8.12047 17.0434 8.30969C17.5003 8.49891 18.0029 8.54842 18.4879 8.45196C18.9728 8.35549 19.4183 8.11739 19.7679 7.76776C20.1175 7.41813 20.3556 6.97267 20.4521 6.48772C20.5486 6.00277 20.4991 5.5001 20.3099 5.04328C20.1206 4.58647 19.8002 4.19602 19.3891 3.92132ZM4.61122 14.0787C5.02235 14.3534 5.5057 14.5 6.00015 14.5C6.66319 14.5 7.29908 14.2366 7.76792 13.7678C8.23676 13.2989 8.50015 12.663 8.50015 12C8.50015 11.5055 8.35353 11.0222 8.07882 10.6111C7.80412 10.1999 7.41367 9.87951 6.95686 9.69029C6.50004 9.50107 5.99738 9.45157 5.51242 9.54803C5.02747 9.64449 4.58201 9.88259 4.23238 10.2322C3.88275 10.5819 3.64465 11.0273 3.54819 11.5123C3.45172 11.9972 3.50123 12.4999 3.69045 12.9567C3.87967 13.4135 4.2001 13.804 4.61122 14.0787ZM16.6112 20.0787C17.0223 20.3534 17.5057 20.5 18.0002 20.5C18.6632 20.5 19.2991 20.2366 19.7679 19.7678C20.2368 19.2989 20.5002 18.663 20.5002 18C20.5002 17.5055 20.3535 17.0222 20.0788 16.6111C19.8041 16.1999 19.4137 15.8795 18.9569 15.6903C18.5 15.5011 17.9974 15.4516 17.5124 15.548C17.0275 15.6445 16.582 15.8826 16.2324 16.2322C15.8828 16.5819 15.6447 17.0273 15.5482 17.5123C15.4517 17.9972 15.5012 18.4999 15.6905 18.9567C15.8797 19.4135 16.2001 19.804 16.6112 20.0787Z" fill="black" stroke="white"/>
</svg>
