<svg width="84" height="88" viewBox="0 0 84 88" fill="none" xmlns="http://www.w3.org/2000/svg">
<path d="M29.4001 22.75H54.6001C66.5001 22.75 67.6901 28.315 68.4951 35.105L71.6451 61.355C72.6601 69.965 70.0001 77 57.7501 77H26.2851C14.0001 77 11.3401 69.965 12.3901 61.355L15.5401 35.105C16.3101 28.315 17.5001 22.75 29.4001 22.75Z" stroke="white" stroke-width="1.5" stroke-linecap="round" stroke-linejoin="round"/>
<path d="M28 28V15.75C28 10.5 31.5 7 36.75 7H47.25C52.5 7 56 10.5 56 15.75V28" stroke="white" stroke-width="1.5" stroke-linecap="round" stroke-linejoin="round"/>
<path d="M32.125 61.0625H47.5C52.8125 61.0625 57.125 56.75 57.125 51.4375C57.125 46.125 52.8125 41.8125 47.5 41.8125H26.3438" stroke="white" stroke-width="1.5" stroke-miterlimit="10" stroke-linecap="round" stroke-linejoin="round"/>
<path d="M30.7813 46.6562L25.875 41.7187L30.7813 36.8125" stroke="white" stroke-width="1.5" stroke-linecap="round" stroke-linejoin="round"/>
</svg>
