<svg width="92" height="92" viewBox="0 0 92 92" fill="none" xmlns="http://www.w3.org/2000/svg">
<path d="M11.5383 43.01V60.2217C11.5383 77.4333 18.4383 84.3333 35.65 84.3333H56.3117C73.5233 84.3333 80.4233 77.4333 80.4233 60.2217V43.01" stroke="white" stroke-width="4" stroke-linecap="round" stroke-linejoin="round"/>
<path d="M46 46C53.015 46 58.19 40.2883 57.5 33.2733L54.97 7.66663H37.0683L34.5 33.2733C33.81 40.2883 38.985 46 46 46Z" stroke="white" stroke-width="4" stroke-linecap="round" stroke-linejoin="round"/>
<path d="M70.1883 46C77.9316 46 83.605 39.7133 82.8383 32.0083L81.765 21.4666C80.385 11.5 76.5516 7.66663 66.5083 7.66663H54.8167L57.5 34.5383C58.1516 40.8633 63.8633 46 70.1883 46Z" stroke="white" stroke-width="4" stroke-linecap="round" stroke-linejoin="round"/>
<path d="M21.62 46C27.945 46 33.6567 40.8633 34.27 34.5383L35.1134 26.0666L36.9534 7.66663H25.2617C15.2184 7.66663 11.385 11.5 10.005 21.4666L8.97004 32.0083C8.20337 39.7133 13.8767 46 21.62 46Z" stroke="white" stroke-width="4" stroke-linecap="round" stroke-linejoin="round"/>
<path d="M46 65.1667C39.5983 65.1667 36.4166 68.3484 36.4166 74.75V84.3334H55.5833V74.75C55.5833 68.3484 52.4016 65.1667 46 65.1667Z" stroke="white" stroke-width="4" stroke-linecap="round" stroke-linejoin="round"/>
</svg>
