<svg width="74" height="74" viewBox="0 0 74 74" fill="none" xmlns="http://www.w3.org/2000/svg">
<path d="M46.0467 6.84613V37C46.0467 40.3169 43.3328 43.0307 40.0159 43.0307H6.84668V23.7926C9.04791 26.416 12.4252 28.0443 16.1643 27.9538C19.2098 27.8935 21.9538 26.7175 24.0042 24.7575C24.939 23.9735 25.7231 22.9784 26.3261 21.8929C27.4117 20.0535 28.0147 17.8824 27.9544 15.6208C27.8639 12.0928 26.296 8.98705 23.8535 6.84613H46.0467Z" stroke="white" stroke-width="1.5" stroke-linecap="round" stroke-linejoin="round"/>
<path d="M67.1544 43.0308V52.0769C67.1544 57.0825 63.1138 61.1231 58.1082 61.1231H55.0928C55.0928 57.8062 52.379 55.0923 49.0621 55.0923C45.7451 55.0923 43.0313 57.8062 43.0313 61.1231H30.9698C30.9698 57.8062 28.2559 55.0923 24.939 55.0923C21.6221 55.0923 18.9082 57.8062 18.9082 61.1231H15.8928C10.8873 61.1231 6.84668 57.0825 6.84668 52.0769V43.0308H40.0159C43.3328 43.0308 46.0467 40.3169 46.0467 37V15.8923H51.5951C53.7661 15.8923 55.7563 17.0683 56.8418 18.9379L61.998 27.9538H58.1082C56.4498 27.9538 55.0928 29.3108 55.0928 30.9692V40.0154C55.0928 41.6738 56.4498 43.0308 58.1082 43.0308H67.1544Z" stroke="white" stroke-width="1.5" stroke-linecap="round" stroke-linejoin="round"/>
<path d="M24.939 67.1538C28.2697 67.1538 30.9697 64.4538 30.9697 61.1231C30.9697 57.7924 28.2697 55.0923 24.939 55.0923C21.6083 55.0923 18.9082 57.7924 18.9082 61.1231C18.9082 64.4538 21.6083 67.1538 24.939 67.1538Z" stroke="white" stroke-width="1.5" stroke-linecap="round" stroke-linejoin="round"/>
<path d="M49.062 67.1538C52.3927 67.1538 55.0928 64.4538 55.0928 61.1231C55.0928 57.7924 52.3927 55.0923 49.062 55.0923C45.7313 55.0923 43.0312 57.7924 43.0312 61.1231C43.0312 64.4538 45.7313 67.1538 49.062 67.1538Z" stroke="white" stroke-width="1.5" stroke-linecap="round" stroke-linejoin="round"/>
<path d="M67.1543 37V43.0308H58.1082C56.4497 43.0308 55.0928 41.6738 55.0928 40.0154V30.9692C55.0928 29.3107 56.4497 27.9538 58.1082 27.9538H61.9979L67.1543 37Z" stroke="white" stroke-width="1.5" stroke-linecap="round" stroke-linejoin="round"/>
<path d="M27.9537 15.6209C28.014 17.8824 27.411 20.0536 26.3254 21.8929C25.7224 22.9785 24.9383 23.9736 24.0035 24.7576C21.9531 26.7176 19.2092 27.8936 16.1636 27.9539C12.4245 28.0444 9.04723 26.416 6.846 23.7927C6.42384 23.3403 6.06201 22.8278 5.73032 22.3151C4.55432 20.5361 3.89092 18.4254 3.83061 16.1638C3.74015 12.3644 5.42874 8.89664 8.14259 6.63511C10.1931 4.94649 12.7862 3.89113 15.6207 3.83082C18.7868 3.77051 21.6817 4.91636 23.8528 6.84621C26.2953 8.98713 27.8632 12.0929 27.9537 15.6209Z" stroke="white" stroke-width="1.5" stroke-miterlimit="10" stroke-linecap="round" stroke-linejoin="round"/>
<path d="M11.1885 15.9829L14.234 18.8775L20.5361 12.7864" stroke="white" stroke-width="1.5" stroke-linecap="round" stroke-linejoin="round"/>
</svg>
