<svg width="53" height="57" viewBox="0 0 53 57" fill="none" xmlns="http://www.w3.org/2000/svg">
<path d="M41.9067 29.7891L41.7729 29.933L28.0608 44.68C28.0604 44.6803 28.0601 44.6807 28.0598 44.681C27.8593 44.8984 27.6188 45.0732 27.3511 45.1933C27.0828 45.3136 26.7936 45.3761 26.5004 45.3761C26.2073 45.3761 25.9181 45.3136 25.6498 45.1933C25.382 45.0732 25.1415 44.8984 24.941 44.6809L41.9067 29.7891ZM41.9067 29.7891V29.7082C43.6206 27.7005 44.554 25.0688 44.5203 22.3513C44.4858 19.5681 43.4394 16.9035 41.5954 14.9299L41.594 14.9285C39.7388 12.9585 37.2286 11.8466 34.605 11.8466C31.9814 11.8466 29.4713 12.9585 27.616 14.9285L27.616 14.9285L27.6125 14.9323C27.4518 15.1065 27.2626 15.2427 27.0569 15.3349C26.8514 15.427 26.6323 15.4738 26.4121 15.4738C26.1919 15.4738 25.9728 15.427 25.7673 15.3349C25.5616 15.2427 25.3724 15.1065 25.2118 14.9323L25.2118 14.9323L25.2082 14.9285C23.3529 12.9585 20.8428 11.8466 18.2192 11.8466C15.5956 11.8466 13.0854 12.9585 11.2302 14.9285L11.2301 14.9284L11.2243 14.9348C9.40557 16.9343 8.39254 19.6131 8.39254 22.3963C8.39254 25.1794 9.40557 27.8583 11.2243 29.8577L11.2243 29.8577L11.2272 29.8609L24.9401 44.68L41.9067 29.7891ZM26.1881 10.7455L26.4974 10.9929L26.809 10.7484C29.3907 8.72338 32.5546 7.76196 35.7298 8.02979C38.9049 8.29762 41.8936 9.77814 44.1532 12.2144C46.643 14.9084 48.0461 18.5598 48.0461 22.3725C48.0461 26.1853 46.643 29.8366 44.1532 32.5307L30.4433 47.2991C30.4427 47.2997 30.4422 47.3002 30.4417 47.3008C29.3839 48.4195 27.9677 49.0392 26.5004 49.0392C25.0332 49.0392 23.6169 48.4195 22.5592 47.3008C22.5587 47.3002 22.5581 47.2997 22.5576 47.2991L8.84689 32.5298L8.84542 32.5283C6.44629 29.9661 5.03354 26.5147 4.90088 22.8674C4.76823 19.22 5.92602 15.6591 8.13317 12.9013C10.3396 10.1446 13.428 8.39749 16.7721 7.99923C20.1156 7.60104 23.4799 8.57905 26.1881 10.7455Z" stroke="white"/>
</svg>
