<svg width="53" height="57" viewBox="0 0 53 57" fill="none" xmlns="http://www.w3.org/2000/svg">
<path d="M25.2993 41.7223L25.2983 41.7212L16.2663 31.9837L16.2658 31.9832C14.2349 29.8002 12.8479 27.0142 12.2854 23.976C11.7229 20.9376 12.0111 17.7885 13.1123 14.9282C14.2135 12.068 16.0764 9.6291 18.4601 7.91593C20.8433 6.20313 23.6411 5.29156 26.4997 5.29156C29.3583 5.29156 32.1561 6.20313 34.5392 7.91593C36.9229 9.6291 38.7858 12.068 39.887 14.9282C40.9882 17.7885 41.2765 20.9376 40.7139 23.976C40.1514 27.0142 38.7645 29.8002 36.7336 31.9832L36.7331 31.9837L27.701 41.7212L27.7 41.7223C27.5393 41.8965 27.3502 42.0327 27.1445 42.1249C26.9389 42.217 26.7199 42.2638 26.4997 42.2638C26.2794 42.2638 26.0604 42.217 25.8549 42.1249C25.6492 42.0327 25.46 41.8965 25.2993 41.7223ZM20.3813 10.9678L20.3794 10.9692C18.9989 11.9536 17.8432 13.255 16.9946 14.7762C16.1461 16.297 15.6251 18.0003 15.468 19.7619C15.3042 21.5057 15.5037 23.2673 16.0528 24.919C16.602 26.5711 17.4876 28.0735 18.6476 29.3159C18.6477 29.316 18.6479 29.3161 18.648 29.3163L26.1335 37.3667L26.4997 37.7606L26.8658 37.3667L34.3521 29.3155L34.3532 29.3143C35.5115 28.0603 36.3947 26.5482 36.9419 24.888C37.4889 23.2278 37.6869 21.4589 37.5221 19.7079C37.3573 17.9569 36.8337 16.2653 35.9872 14.7547C35.1407 13.2439 33.9917 11.9506 32.6206 10.9696L32.6181 10.9678C30.804 9.68686 28.6772 9.00183 26.4997 9.00183C24.3221 9.00183 22.1953 9.68686 20.3813 10.9678ZM28.6617 24.4435C28.0182 24.9059 27.2659 25.15 26.4997 25.15C25.4731 25.15 24.4806 24.7118 23.7428 23.9183C23.0039 23.1236 22.583 22.0385 22.583 20.9C22.583 20.0517 22.8171 19.2251 23.2521 18.5249C23.6869 17.8251 24.3012 17.2854 25.013 16.9683C25.7242 16.6515 26.5044 16.5693 27.2567 16.7302C28.0094 16.8912 28.7061 17.2898 29.2566 17.8817C29.8073 18.4741 30.1861 19.233 30.3398 20.0643C30.4936 20.8956 30.4144 21.757 30.1136 22.5381C29.8128 23.319 29.3057 23.9807 28.6617 24.4435ZM9.84598 48.5361C10.1696 48.188 10.6005 48 11.0413 48H41.958C42.3989 48 42.8297 48.188 43.1534 48.5361C43.4782 48.8854 43.6663 49.3665 43.6663 49.875C43.6663 50.3836 43.4782 50.8646 43.1534 51.2139C42.8297 51.562 42.3989 51.75 41.958 51.75H11.0413C10.6005 51.75 10.1696 51.562 9.84598 51.2139C9.52119 50.8646 9.33301 50.3836 9.33301 49.875C9.33301 49.3665 9.52119 48.8854 9.84598 48.5361Z" stroke="white"/>
</svg>
