<svg width="53" height="57" viewBox="0 0 53 57" fill="none" xmlns="http://www.w3.org/2000/svg">
<path d="M38.5925 14.75L38.4578 14.4613L34.6374 6.26753L34.6304 6.25237L34.6243 6.23678C34.5311 5.99593 34.3936 5.78085 34.2223 5.60398C34.0511 5.4272 33.8501 5.29253 33.6329 5.20617C33.4158 5.11987 33.1857 5.08309 32.9567 5.09716C32.7276 5.11123 32.5022 5.176 32.2944 5.28902C32.0864 5.40211 31.8996 5.56161 31.7472 5.75959C31.5947 5.95766 31.4803 6.18949 31.4129 6.44115C31.3455 6.69283 31.3269 6.95743 31.3587 7.21791C31.3905 7.47838 31.4718 7.72746 31.5961 7.9496L31.6054 7.96628L31.6135 7.98363L34.4181 14.0399L34.7469 14.75H33.9643H19.036H18.2534L18.5823 14.0399L21.3797 7.99903C21.5462 7.55922 21.5539 7.06622 21.4005 6.61985C21.2456 6.16913 20.9414 5.80815 20.5595 5.60051C20.1791 5.39365 19.7441 5.3505 19.3386 5.47616C18.9369 5.60061 18.5833 5.88515 18.3547 6.28523L14.5425 14.4613L14.4079 14.75H14.0893H11.046C9.61483 14.7744 8.23157 15.3409 7.14094 16.359C6.04847 17.3789 5.3202 18.7869 5.09302 20.3379C4.86582 21.8889 5.15584 23.4745 5.90789 24.8134C6.65963 26.1517 7.82161 27.153 9.18187 27.6504L9.479 27.759L9.50806 28.0741L11.1422 45.791L38.5925 14.75ZM38.5925 14.75H38.911H41.9562M38.5925 14.75H41.9562M41.9562 14.75C43.3913 14.7641 44.7813 15.3235 45.8793 16.3385C46.9788 17.3548 47.7142 18.7629 47.9467 20.3165C48.1793 21.8702 47.8924 23.4604 47.1408 24.8038C46.3896 26.1466 45.2257 27.1516 43.8625 27.6504L43.5655 27.7591L43.5364 28.0741L41.9023 45.791C41.7482 47.4408 41.0282 48.9625 39.8925 50.0618C38.7578 51.1601 37.2903 51.7581 35.7779 51.75H35.7752L17.2693 51.75L17.2666 51.75C15.7542 51.7581 14.2867 51.1601 13.152 50.0618C12.0164 48.9626 11.2965 47.4412 11.1422 45.7916L41.9562 14.75ZM38.4593 45.4088L38.4593 45.409C38.3937 46.1106 38.0869 46.7679 37.5892 47.2496C37.0909 47.7319 36.4364 48.0033 35.7519 48M38.4593 45.4088L17.2473 47.5M38.4593 45.4088L40.0272 28.5463L40.078 28H39.5293H13.471H12.9224L12.9732 28.5463L14.5411 45.4088L14.5411 45.409C14.6067 46.1106 14.9135 46.7679 15.4111 47.2496C15.9094 47.7319 16.564 48.0033 17.2485 48M38.4593 45.4088L17.2473 47.5M35.7519 48C35.7514 48 35.7509 48 35.7504 48L35.7531 47.5V48H35.7519ZM35.7519 48H17.2485M17.2485 48C17.249 48 17.2495 48 17.25 48L17.2473 47.5M17.2485 48H17.2473V47.5M32.1122 41.7139C31.7885 42.062 31.3577 42.25 30.9168 42.25C30.476 42.25 30.0451 42.062 29.7215 41.7139C29.3967 41.3646 29.2085 40.8835 29.2085 40.375V35.625C29.2085 35.1164 29.3967 34.6354 29.7215 34.2861C30.0451 33.938 30.476 33.75 30.9168 33.75C31.3577 33.75 31.7885 33.938 32.1122 34.2861C32.437 34.6354 32.6252 35.1164 32.6252 35.625V40.375C32.6252 40.8835 32.437 41.3646 32.1122 41.7139ZM23.2789 41.7139C22.9552 42.062 22.5244 42.25 22.0835 42.25C21.6427 42.25 21.2118 42.062 20.8881 41.7139C20.5634 41.3646 20.3752 40.8835 20.3752 40.375V35.625C20.3752 35.1164 20.5634 34.6354 20.8881 34.2861C21.2118 33.938 21.6427 33.75 22.0835 33.75C22.5244 33.75 22.9552 33.938 23.2789 34.2861C23.6037 34.6354 23.7918 35.1164 23.7918 35.625V40.375C23.7918 40.8835 23.6037 41.3646 23.2789 41.7139ZM11.0418 24.25H41.9585C42.689 24.25 43.3816 23.9376 43.8862 23.3948C44.3897 22.8533 44.6668 22.1262 44.6668 21.375C44.6668 20.6238 44.3897 19.8966 43.8862 19.3551C43.3816 18.8124 42.689 18.5 41.9585 18.5H11.0418C10.3113 18.5 9.61878 18.8124 9.11414 19.3551C8.61065 19.8966 8.33351 20.6238 8.33351 21.375C8.33351 22.1262 8.61065 22.8533 9.11414 23.3948C9.61878 23.9376 10.3113 24.25 11.0418 24.25Z" stroke="white"/>
</svg>
