<svg width="20" height="24" viewBox="0 0 20 24" fill="none" xmlns="http://www.w3.org/2000/svg">
<path d="M0.5 17.0273V17.4579C0.5 17.8985 0.712883 18.3057 1.05814 18.5255L9.40402 23.836C9.74988 24.0561 10.1762 24.0544 10.5209 23.832L18.9422 18.3914C19.2838 18.1706 19.494 17.7657 19.494 17.3281V17.1417C19.494 16.7035 19.2835 16.2986 18.9413 16.0778L10.1208 10.3901C9.38924 9.91816 9.38261 8.75153 10.109 8.26993L15.3138 4.81874C16.0559 4.32681 16.9997 4.91779 16.9997 5.87498V8.3313C16.9997 8.99199 16.5284 9.53462 15.9319 9.56163C14.8181 9.61199 14.455 11.2409 15.4199 11.8582L17.5729 13.2356C17.8838 13.4347 18.2625 13.4554 18.59 13.2913L18.8402 13.1659C19.2383 12.9665 19.494 12.5282 19.494 12.045L19.5 1.23448C19.5006 0.285964 18.5722 -0.307022 17.8295 0.167567L5.20786 8.23358C4.89457 8.43369 4.68892 8.78988 4.65605 9.18843L4.63917 9.39487C4.59997 9.8728 4.81496 10.332 5.19037 10.5725L13.8746 16.1282C14.6082 16.5978 14.6176 17.7657 13.8915 18.2493L10.5526 20.4725C10.2091 20.7013 9.78063 20.708 9.43146 20.4902L2.16025 15.9547C1.41787 15.4918 0.5 16.0848 0.5 17.0273Z" fill="white"/>
<path d="M6.54245 5.00955C6.20564 5.25035 5.77957 5.27903 5.41863 5.08559L4.77275 4.73941C4.0165 4.33419 3.13602 4.93485 3.12365 5.86435L3.0157 14.1131C3.00666 14.8075 2.49495 15.3651 1.86716 15.3651H1.64824C1.01412 15.3651 0.5 14.7965 0.5 14.0948V1.2722C0.5 0.299346 1.44802 -0.312317 2.21362 0.166274L6.48456 2.83638C7.23598 3.30663 7.26764 4.49127 6.54245 5.00955Z" fill="white"/>
</svg>