<svg width="20" height="24" viewBox="0 0 20 24" fill="none" xmlns="http://www.w3.org/2000/svg">
<path d="M0.659546 17.0273V17.4579C0.659546 17.8985 0.872429 18.3057 1.21769 18.5255L9.56356 23.836C9.90942 24.0561 10.3358 24.0544 10.6804 23.832L19.1017 18.3914C19.4433 18.1706 19.6535 17.7657 19.6535 17.3281V17.1417C19.6535 16.7035 19.443 16.2986 19.1008 16.0778L10.2803 10.3901C9.54879 9.91816 9.54215 8.75153 10.2686 8.26993L15.4733 4.81874C16.2154 4.32681 17.1592 4.91779 17.1592 5.87498V8.3313C17.1592 8.99199 16.6879 9.53462 16.0915 9.56163C14.9776 9.61199 14.6146 11.2409 15.5795 11.8582L17.7324 13.2356C18.0433 13.4347 18.422 13.4554 18.7495 13.2913L18.9998 13.1659C19.3978 12.9665 19.6535 12.5282 19.6535 12.045L19.6595 1.23448C19.6602 0.285964 18.7317 -0.307022 17.989 0.167567L5.36741 8.23358C5.05411 8.43369 4.84847 8.78988 4.8156 9.18843L4.79871 9.39487C4.75951 9.8728 4.97451 10.332 5.34992 10.5725L14.0341 16.1282C14.7677 16.5978 14.7771 17.7657 14.051 18.2493L10.7121 20.4725C10.3687 20.7013 9.94018 20.708 9.591 20.4902L2.3198 15.9547C1.57742 15.4918 0.659546 16.0848 0.659546 17.0273Z" fill="#0097E4"/>
<path d="M6.702 5.00955C6.36518 5.25035 5.93912 5.27903 5.57818 5.08559L4.93229 4.73941C4.17604 4.33419 3.29556 4.93485 3.2832 5.86435L3.17525 14.1131C3.1662 14.8075 2.6545 15.3651 2.0267 15.3651H1.80779C1.17366 15.3651 0.659546 14.7965 0.659546 14.0948V1.2722C0.659546 0.299346 1.60757 -0.312317 2.37317 0.166274L6.6441 2.83638C7.39553 3.30663 7.42719 4.49127 6.702 5.00955Z" fill="#0097E4"/>
</svg>
